<?xml version="1.0" encoding="UTF-8"?>
<svg id="Isotipo" xmlns="http://www.w3.org/2000/svg" viewBox="0 0 203.39 235.25">
  <defs>
    <style>
      .cls-1 {
        fill: #383838;
      }

      .cls-2 {
        fill: #da8023;
      }
    </style>
  </defs>
  <g id="Trazado">
    <path id="Hexágono" class="cls-2" d="M203.32,71.42l-.16,94.43c-.8,12.21-12.68,17.48-29.54,27.79h-18.06c-.73,0-1.31-.62-1.3-1.37,0-.45.22-.86.58-1.11l29.22-18.56c6.82-4.54,6.18-6.27,6.66-9.9l.16-85.94c-.16-6.19-1.44-10.97-8.99-14.19L110.45,16.99c-5.14-3.55-10.92-4.12-17.66,0L19.99,62.76c-4.58,2.89-6.42,3.71-6.26,8.91v89.07c0,5.53,1.44,8.25,4.25,9.48l33.31,21.11.16.08,40.94,26.06c6.66,4.7,12.92,4.95,18.78,1.57.04,0,.08-.04.08-.08h0c.76-.44,1.48-.93,2.17-1.48l9.47-6.6,11.64,7.67-23.84,14.84c-5.46,2.47-12.44,2.47-19.26,0L11.8,182.51S-.08,173.85,0,167.01v-98.97s.64-8.49,9.63-13.36L88.62,4.95c9.31-6.68,18.22-6.52,26.73,0l74.33,46.84c8.43,5.11,14.45,11.38,13.65,19.63Z"/>
    <path id="Silueta" class="cls-1" d="M155.32,107.05c.4-5.46.43-10.95.08-16.41-8.43-46.35-48.8-50.31-48.8-50.31-68.55-3.71-65.74,63.5-65.74,63.5,1.61,33.4,13.48,39.67,20.07,46.84,6.42,6.93-8.59,38.84-9.47,40.74l40.94,26.06c6.66,4.7,12.92,4.95,18.78,1.57l-.16-.25c4.98-42.64,11.64-40.49,11.64-40.49h22.8c13.65-3.13,6.66-20.45,6.66-20.45,6.18-1.9,4.41-11.38,4.41-11.38l-.64-9.07c30.1-.66-1.61-16.74-.56-30.35ZM90.3,138.06c-2.66.01-4.83-2.19-4.84-4.92,0-1.43.59-2.79,1.63-3.74.88-.81,2.03-1.26,3.21-1.24,2.66,0,4.82,2.22,4.82,4.95s-2.16,4.95-4.82,4.95ZM90.3,75.05c-2.66.01-4.83-2.19-4.84-4.92,0-1.43.59-2.79,1.63-3.74.88-.81,2.03-1.26,3.21-1.24,2.66,0,4.82,2.22,4.82,4.95.05,2.68-2.03,4.9-4.64,4.95-.06,0-.12,0-.18,0ZM106.52,105.48c-.89.88-2.06,1.38-3.29,1.4-1.2,0-2.35-.47-3.21-1.32-1.99-1.85-2.15-5.01-.35-7.06.11-.13.23-.25.35-.36.88-.81,2.03-1.26,3.21-1.24,1.16-.03,2.29.41,3.13,1.24,1.07.95,1.69,2.34,1.69,3.79,0,1.35-.56,2.63-1.53,3.55Z"/>
  </g>
  <g id="Circuito">
    <path class="cls-2" d="M115.02,57.24c-1.33-1.55-3.63-1.7-5.13-.33-1.51,1.36-1.65,3.72-.32,5.27.05.06.1.12.16.17.08.08,10.6,11.88,10.6,23.26,0,5.53-1.12,9.24-6.1,11.13-2.8-6.25-9.99-8.99-16.07-6.11-3.09,1.46-5.44,4.19-6.48,7.52h-26.09v-16.16c-.02-4.49,3.51-8.15,7.88-8.16.02,0,.04,0,.06,0h5.22c1.99,6.52,8.75,10.14,15.1,8.09,6.34-2.05,9.87-8.99,7.87-15.51s-8.75-10.14-15.1-8.09c-3.75,1.21-6.69,4.23-7.87,8.09h-5.22c-8.36.05-15.13,7-15.17,15.59v16.16h-7.3c-1.99,0-3.61,1.66-3.61,3.71s1.62,3.71,3.61,3.71h7.38v15.67c.04,8.59,6.81,15.54,15.17,15.59h5.22c1.99,6.52,8.75,10.14,15.1,8.09,6.34-2.05,9.87-8.99,7.87-15.51-1.99-6.52-8.75-10.14-15.1-8.09-3.75,1.21-6.69,4.23-7.87,8.09h-5.3c-4.37.02-7.93-3.61-7.95-8.1,0-.02,0-.04,0-.07v-15.67h26.09c1.99,6.55,8.77,10.21,15.15,8.17,4.28-1.37,7.47-5.05,8.29-9.57,6.98-2.06,12.44-7.09,12.44-18.56,0-14.35-11.96-27.79-12.52-28.37ZM87.09,66.39c.88-.81,2.03-1.26,3.21-1.24,2.66,0,4.82,2.22,4.82,4.95s-2.16,4.95-4.82,4.95h0c-2.66.01-4.83-2.19-4.84-4.92,0-1.43.59-2.79,1.63-3.74ZM87.09,129.32c.88-.81,2.03-1.26,3.21-1.24,2.66,0,4.82,2.22,4.82,4.95s-2.16,4.95-4.82,4.95h0c-2.66.01-4.83-2.19-4.84-4.92,0-1.43.59-2.79,1.63-3.74ZM106.52,105.48c-.89.88-2.06,1.38-3.29,1.4-1.2,0-2.35-.47-3.21-1.32-1.99-1.85-2.15-5.01-.35-7.06.11-.13.23-.25.35-.36.88-.81,2.03-1.26,3.21-1.24,1.16-.03,2.29.41,3.13,1.24,1.07.95,1.69,2.34,1.69,3.79,0,1.35-.56,2.63-1.53,3.55Z"/>
  </g>
</svg>